<svg width="24" height="23" fill="none" xmlns="http://www.w3.org/2000/svg"><path d="M1.5 1.565C-.386 3.442 0 5.437 0 11.495c0 5.032-.916 10.075 3.878 11.263 1.497.369 14.761.369 16.256-.002 1.996-.494 3.62-2.045 3.842-4.75.031-.378.031-12.636 0-13.022-.237-2.881-2.088-4.542-4.527-4.878C18.89.028 18.78.005 15.91 0 5.737.005 3.507-.43 1.5 1.565Z" fill="url(#a)"/><path d="M11.998 3.008c-3.631 0-7.08-.31-8.396 2.93-.544 1.338-.465 3.075-.465 5.563 0 2.183-.073 4.235.465 5.562 1.314 3.241 4.79 2.93 8.394 2.93 3.477 0 7.062.348 8.395-2.93.545-1.351.465-3.063.465-5.562 0-3.318.19-5.46-1.488-7.068-1.7-1.629-4-1.425-7.374-1.425h.004Zm-.794 1.53c7.574-.01 8.538-.818 8.006 10.392-.189 3.965-3.34 3.53-7.211 3.53-7.06 0-7.263-.194-7.263-6.963 0-6.847.56-6.954 6.468-6.96v.002Zm5.524 1.41c-.587 0-1.063.457-1.063 1.02 0 .562.476 1.018 1.063 1.018s1.063-.456 1.063-1.019c0-.562-.476-1.019-1.063-1.019Zm-4.73 1.192c-2.513 0-4.55 1.953-4.55 4.361 0 2.408 2.037 4.36 4.55 4.36s4.549-1.952 4.549-4.36c0-2.408-2.036-4.361-4.549-4.361Zm0 1.53c3.905 0 3.91 5.662 0 5.662-3.904 0-3.91-5.662 0-5.662Z" fill="#fff"/><defs><linearGradient id="a" x1="1.546" y1="21.531" x2="23.034" y2="2.125" gradientUnits="userSpaceOnUse"><stop stop-color="#FD5"/><stop offset=".5" stop-color="#FF543E"/><stop offset="1" stop-color="#C837AB"/></linearGradient></defs></svg>