<svg width="92" height="28" fill="none" xmlns="http://www.w3.org/2000/svg"><path d="M18.213 27H.402V1.133H5.87v21.063h12.342V27Z" fill="#0DBC91"/><path d="M16.258 14.067c0-2.119.271-4.016.813-5.691.542-1.675 1.318-3.08 2.328-4.213a9.92 9.92 0 0 1 3.77-2.623c1.477-.616 3.153-.924 5.025-.924 1.995 0 3.732.333 5.21.998 1.503.64 2.747 1.552 3.732 2.734 1.01 1.183 1.762 2.6 2.254 4.25.518 1.65.776 3.473.776 5.469 0 2.118-.283 4.015-.85 5.69-.541 1.675-1.33 3.092-2.364 4.25-1.035 1.133-2.291 2.008-3.77 2.623-1.478.592-3.14.887-4.988.887-1.996 0-3.745-.32-5.247-.96-1.479-.666-2.723-1.59-3.733-2.772-.985-1.182-1.724-2.599-2.217-4.25-.492-1.65-.739-3.473-.739-5.468Zm5.802 0c0 1.28.123 2.45.37 3.51.246 1.06.615 1.97 1.108 2.735a5.191 5.191 0 0 0 1.884 1.773c.789.42 1.713.628 2.772.628 1.946 0 3.461-.665 4.545-1.995s1.626-3.547 1.626-6.651c0-1.232-.11-2.378-.333-3.437-.221-1.06-.59-1.97-1.108-2.734a5.014 5.014 0 0 0-1.922-1.811c-.763-.444-1.7-.665-2.808-.665-1.922 0-3.424.69-4.508 2.07-1.084 1.379-1.626 3.571-1.626 6.577Zm31.8-.665h10.568v11.603a9.608 9.608 0 0 1-1.885 1.145c-.665.296-1.38.554-2.143.776-.739.197-1.503.345-2.29.444-.79.098-1.565.147-2.329.147-1.774 0-3.436-.258-4.988-.776a10.973 10.973 0 0 1-4.028-2.402c-1.133-1.108-2.033-2.512-2.698-4.212-.64-1.7-.96-3.72-.96-6.06 0-2.44.394-4.509 1.182-6.208.788-1.725 1.81-3.117 3.067-4.176a11.8 11.8 0 0 1 4.25-2.328 15.667 15.667 0 0 1 4.692-.739c1.602 0 3.006.123 4.213.37 1.232.221 2.192.443 2.882.665l-1.145 4.545a15.887 15.887 0 0 0-2.254-.555c-.838-.147-1.885-.221-3.141-.221-1.158 0-2.217.16-3.178.48a6.184 6.184 0 0 0-2.513 1.478c-.714.69-1.269 1.59-1.663 2.698-.394 1.108-.591 2.451-.591 4.028 0 1.527.197 2.833.591 3.916.394 1.085.924 1.984 1.59 2.698a6.376 6.376 0 0 0 2.364 1.515 8.21 8.21 0 0 0 2.808.48c.666 0 1.33-.073 1.996-.221.69-.148 1.269-.382 1.737-.702v-4.472l-6.134-.59V13.4Zm13.677.665c0-2.119.27-4.016.813-5.691.542-1.675 1.318-3.08 2.328-4.213a9.92 9.92 0 0 1 3.769-2.623C75.925.924 77.6.616 79.472.616c1.996 0 3.733.333 5.21.998 1.504.64 2.748 1.552 3.733 2.734 1.01 1.183 1.761 2.6 2.254 4.25.517 1.65.776 3.473.776 5.469 0 2.118-.283 4.015-.85 5.69-.542 1.675-1.33 3.092-2.365 4.25-1.035 1.133-2.29 2.008-3.769 2.623-1.478.592-3.14.887-4.989.887-1.995 0-3.744-.32-5.247-.96-1.478-.666-2.722-1.59-3.732-2.772-.985-1.182-1.724-2.599-2.217-4.25-.493-1.65-.74-3.473-.74-5.468Zm5.801 0c0 1.28.124 2.45.37 3.51.246 1.06.616 1.97 1.109 2.735a5.191 5.191 0 0 0 1.884 1.773c.788.42 1.712.628 2.772.628 1.946 0 3.46-.665 4.545-1.995 1.084-1.33 1.626-3.547 1.626-6.651 0-1.232-.111-2.378-.333-3.437-.222-1.06-.591-1.97-1.109-2.734a5.014 5.014 0 0 0-1.921-1.811c-.764-.444-1.7-.665-2.809-.665-1.921 0-3.424.69-4.508 2.07-1.084 1.379-1.626 3.571-1.626 6.577Z" fill="#0DBC91"/></svg>