<svg width="28" height="28" fill="none" xmlns="http://www.w3.org/2000/svg"><g clip-path="url(#a)"><path d="M23.94 4.024C21.28 1.452 17.78 0 14.052 0 3.354 0-3.364 11.59 1.98 20.811L0 28l7.39-1.927c3.22 1.74 5.859 1.585 6.67 1.688 12.405 0 18.58-15.008 9.862-23.692l.018-.045Z" fill="#ECEFF1"/><path d="m14.078 25.376-.007-.001h-.018c-3.713 0-6.085-1.758-6.318-1.86L3.36 24.653 4.532 20.4l-.278-.437a11.513 11.513 0 0 1-1.769-6.137c0-10.258 12.536-15.388 19.79-8.137 7.237 7.175 2.156 19.687-8.197 19.687Z" fill="#1FA181"/><path d="m20.425 16.692-.01.087c-.352-.175-2.062-1.011-2.38-1.127-.716-.265-.514-.042-1.887 1.53-.204.228-.407.246-.754.088-.35-.175-1.473-.542-2.803-1.732-1.036-.928-1.732-2.065-1.937-2.415-.342-.59.373-.675 1.024-1.907.117-.245.057-.437-.029-.611-.087-.175-.784-1.89-1.075-2.574-.28-.681-.569-.595-.785-.595-.672-.058-1.163-.049-1.596.402-1.883 2.07-1.408 4.204.203 6.475 3.167 4.144 4.854 4.907 7.938 5.966.834.265 1.593.227 2.194.141.67-.106 2.061-.841 2.352-1.664.297-.822.297-1.505.21-1.662-.087-.158-.315-.245-.665-.402Z" fill="#FAFAFA"/></g><defs><clipPath id="a"><path fill="#fff" d="M0 0h28v28H0z"/></clipPath></defs></svg>